<svg width="32" height="32" viewBox="0 0 32 32" fill="none" xmlns="http://www.w3.org/2000/svg">
<path d="M23.5 7.42857H25.6429M9.57143 1H22.4286C24.7019 1 26.882 1.90306 28.4895 3.51051C30.0969 5.11797 31 7.29814 31 9.57143V22.4286C31 24.7019 30.0969 26.882 28.4895 28.4895C26.882 30.0969 24.7019 31 22.4286 31H9.57143C7.29814 31 5.11797 30.0969 3.51051 28.4895C1.90306 26.882 1 24.7019 1 22.4286V9.57143C1 7.29814 1.90306 5.11797 3.51051 3.51051C5.11797 1.90306 7.29814 1 9.57143 1ZM16 22.4286C14.295 22.4286 12.6599 21.7513 11.4543 20.5457C10.2487 19.3401 9.57143 17.705 9.57143 16C9.57143 14.295 10.2487 12.6599 11.4543 11.4543C12.6599 10.2487 14.295 9.57143 16 9.57143C17.705 9.57143 19.3401 10.2487 20.5457 11.4543C21.7513 12.6599 22.4286 14.295 22.4286 16C22.4286 17.705 21.7513 19.3401 20.5457 20.5457C19.3401 21.7513 17.705 22.4286 16 22.4286Z" stroke="black" stroke-width="1.3"/>
</svg>
