<?xml version="1.0" encoding="UTF-8"?>
<!DOCTYPE svg PUBLIC "-//W3C//DTD SVG 1.1//EN" "http://www.w3.org/Graphics/SVG/1.1/DTD/svg11.dtd">
<!-- Creator: CorelDRAW 2021.5 -->
<svg xmlns="http://www.w3.org/2000/svg" xml:space="preserve" width="629px" height="1017px" version="1.1" style="shape-rendering:geometricPrecision; text-rendering:geometricPrecision; image-rendering:optimizeQuality; fill-rule:evenodd; clip-rule:evenodd"
viewBox="0 0 629 1016.11"
 xmlns:xlink="http://www.w3.org/1999/xlink"
 xmlns:xodm="http://www.corel.com/coreldraw/odm/2003">
 <defs>
  <style type="text/css">
   <![CDATA[
    .str0 {stroke:#000000;stroke-width:16.66;stroke-miterlimit:2.61313}
    .fil0 {fill:#000000}
   ]]>
  </style>
 </defs>
 <g id="Layer_x0020_1">
  <metadata id="CorelCorpID_0Corel-Layer"/>
  <polygon class="fil0 str0" points="14.32,875.18 14.32,8.99 613.99,8.99 574.13,75.62 80.95,75.62 80.95,408.77 447.71,408.77 407,475.4 80.95,475.4 80.95,808.55 447.71,808.55 408.26,875.18 "/>
  <path class="fil0 str0" d="M380.78 1008.45l-366.46 -0.01 39.65 -66.63 326.81 0.01c92,0 166.58,-74.58 166.58,-166.58 0,-91.99 -74.58,-166.57 -166.58,-166.57l-199.89 -0.01 0 133.26 -33.31 0 0 -199.89 233.2 0.01c92,0 166.58,-74.58 166.58,-166.58 0,-91.99 -74.58,-166.57 -166.58,-166.57l-199.89 -0.01 0 133.26 -33.31 0 0 -199.89 233.2 0.01c128.8,0 233.21,104.41 233.21,233.2 0,84.83 -45.3,159.08 -113.02,199.89 67.73,40.81 113.02,115.06 113.02,199.89 0,128.8 -104.41,233.21 -233.21,233.21z"/>
 </g>
</svg>
