<svg width="32" height="32" viewBox="0 0 32 32" fill="none" xmlns="http://www.w3.org/2000/svg">
<path d="M9.57143 1H22.4286C24.7019 1 26.882 1.90306 28.4895 3.51051C30.0969 5.11797 31 7.29814 31 9.57143V22.4286C31 24.7019 30.0969 26.882 28.4895 28.4895C26.882 30.0969 24.7019 31 22.4286 31H9.57143C7.29814 31 5.11797 30.0969 3.51051 28.4895C1.90306 26.882 1 24.7019 1 22.4286V9.57143C1 7.29814 1.90306 5.11797 3.51051 3.51051C5.11797 1.90306 7.29814 1 9.57143 1Z" stroke="black" stroke-width="1.3"/>
<path d="M28.1354 7.59354C28.1353 7.49752 28.1099 7.40321 28.0617 7.3202C28.0134 7.23719 27.944 7.16843 27.8606 7.1209C27.7771 7.07338 27.6826 7.04879 27.5866 7.04963C27.4906 7.05047 27.3965 7.07671 27.3139 7.12568C26.5482 7.58167 25.7165 7.9164 24.8484 8.11798C23.8996 7.2122 22.6369 6.70914 21.3253 6.7144C20.6128 6.71541 19.9084 6.86429 19.2565 7.15162C18.6046 7.43896 18.0194 7.85848 17.538 8.38365C17.0566 8.90882 16.6894 9.52821 16.4598 10.2026C16.2301 10.877 16.143 11.5917 16.2038 12.3015C12.9148 11.952 9.89694 10.3174 7.80731 7.75348C7.75154 7.68537 7.68007 7.63181 7.59904 7.5974C7.51801 7.56299 7.42983 7.54876 7.34209 7.55593C7.25435 7.5631 7.16966 7.59145 7.09529 7.63856C7.02092 7.68567 6.95909 7.75012 6.91511 7.82638C6.4637 8.61358 6.22625 9.50524 6.22638 10.4127C6.22505 11.4086 6.51308 12.3835 7.05547 13.2188L6.99019 13.1829C6.90494 13.141 6.81029 13.122 6.71549 13.1277C6.6207 13.1335 6.52902 13.1637 6.44943 13.2155C6.36649 13.2694 6.29843 13.3433 6.25147 13.4304C6.20452 13.5174 6.18017 13.6149 6.18068 13.7138C6.17633 13.8422 6.18394 13.9717 6.20461 14.0979C6.25604 14.8163 6.45887 15.5156 6.79979 16.15C7.14071 16.7844 7.612 17.3395 8.18269 17.7788C8.11313 17.7993 8.04837 17.8334 7.99221 17.8793C7.93606 17.9252 7.88963 17.9818 7.85567 18.0459C7.82172 18.1099 7.80091 18.1801 7.79447 18.2524C7.78803 18.3246 7.7961 18.3974 7.81819 18.4664C8.06954 19.2501 8.50617 19.9617 9.09107 20.5407C9.67597 21.1197 10.3919 21.5492 11.1781 21.7926C9.57266 22.6914 7.72366 23.0582 5.8967 22.8404C5.77427 22.8251 5.65027 22.8518 5.54506 22.9163C5.43984 22.9807 5.35965 23.079 5.31765 23.195C5.27565 23.311 5.27433 23.4379 5.31391 23.5547C5.35348 23.6716 5.43161 23.7715 5.53546 23.8381C7.72184 25.2459 10.2674 25.9942 12.8678 25.9936C15.8177 26.0261 18.6957 25.083 21.0542 23.3109C23.4127 21.5388 25.1195 19.037 25.9092 16.1946C26.2781 14.9575 26.4663 13.6725 26.4685 12.381C26.4685 12.2504 26.4685 12.1144 26.4652 11.9762C27.0311 11.4008 27.4717 10.7144 27.7591 9.96031C28.0466 9.2062 28.1747 8.39963 28.1354 7.59354ZM25.4979 11.4376C25.4086 11.5433 25.363 11.6792 25.3706 11.8174C25.4301 13.1928 25.2595 14.5685 24.8658 15.8878C24.1635 18.5167 22.5997 20.8341 20.4244 22.469C18.2492 24.104 15.5884 24.9619 12.8678 24.9055C11.2075 24.9056 9.5639 24.5737 8.03363 23.9295C9.83208 23.73 11.5382 23.0287 12.9571 21.9058C13.0453 21.8364 13.11 21.7413 13.1421 21.6338C13.1742 21.5262 13.1723 21.4113 13.1365 21.3048C13.1008 21.1984 13.033 21.1056 12.9424 21.0392C12.8518 20.9729 12.7429 20.9362 12.6306 20.9341C11.9342 20.9228 11.2526 20.7315 10.652 20.3788C10.0515 20.026 9.55238 19.5239 9.20328 18.9212C9.6657 18.9223 10.1249 18.8592 10.5677 18.7319C10.6844 18.6977 10.7863 18.6254 10.8571 18.5265C10.9279 18.4276 10.9635 18.3078 10.9582 18.1863C10.953 18.0648 10.9071 17.9486 10.8281 17.8562C10.749 17.7637 10.6412 17.7005 10.522 17.6765C9.74316 17.5207 9.0277 17.1383 8.46538 16.5773C7.90307 16.0163 7.51894 15.3018 7.36121 14.5233C7.82329 14.6732 8.30428 14.7567 8.78982 14.7714C8.90945 14.7803 9.02841 14.7471 9.12615 14.6775C9.22389 14.608 9.29428 14.5065 9.32514 14.3906C9.36068 14.2781 9.35868 14.157 9.31943 14.0458C9.28017 13.9345 9.20581 13.839 9.10753 13.7737C8.55398 13.4052 8.10044 12.9052 7.78751 12.3185C7.47458 11.7317 7.31204 11.0766 7.31443 10.4116C7.31443 9.96223 7.38733 9.51613 7.53204 9.09179C9.94428 11.6966 13.2785 13.2563 16.824 13.4386C16.9087 13.4476 16.9943 13.4344 17.0724 13.4002C17.1504 13.3661 17.2182 13.3122 17.269 13.2438C17.323 13.1791 17.3612 13.1028 17.3806 13.0209C17.4001 12.9389 17.4002 12.8536 17.3811 12.7716C17.3093 12.4715 17.2727 12.164 17.2723 11.8554C17.2734 10.781 17.7006 9.75079 18.4602 8.99081C19.2197 8.23084 20.2497 7.80309 21.3242 7.80136C21.8776 7.79978 22.4254 7.91297 22.9329 8.13376C23.4404 8.35456 23.8966 8.67817 24.2728 9.08417C24.336 9.15155 24.4153 9.20171 24.5032 9.22988C24.5912 9.25806 24.6849 9.26334 24.7755 9.2452C25.5476 9.09318 26.2984 8.84803 27.0114 8.51512C26.826 9.62418 26.2972 10.6467 25.4979 11.4376Z" fill="black"/>
</svg>
