<svg width="30" height="30" viewBox="0 0 30 30" fill="none" xmlns="http://www.w3.org/2000/svg">
<path d="M19.8214 17.6671C19.1928 16.9918 18.44 16.4437 17.6043 16.0529C18.7928 15.3205 19.8236 14.3588 20.6367 13.224C21.4498 12.0891 22.0288 10.8038 22.34 9.44286C22.364 9.35023 22.3691 9.25373 22.355 9.15909C22.341 9.06445 22.3081 8.97359 22.2582 8.89191C22.2084 8.81024 22.1427 8.73941 22.0649 8.68363C21.9872 8.62784 21.899 8.58825 21.8057 8.56719C21.7124 8.54613 21.6158 8.54404 21.5216 8.56103C21.4274 8.57803 21.3377 8.61377 21.2576 8.66613C21.1775 8.71849 21.1088 8.78641 21.0554 8.86584C21.0021 8.94528 20.9653 9.03463 20.9471 9.12857C20.6299 10.522 19.9885 11.8211 19.0751 12.9202C18.1617 14.0193 17.0019 14.8875 15.69 15.4543C15.5343 15.4286 15.3757 15.4214 15.22 15.4057V9.28857C15.216 9.22575 15.2035 9.16375 15.1829 9.10429C15.1786 9.07345 15.1724 9.04292 15.1643 9.01286C15.1312 8.93745 15.0852 8.86833 15.0286 8.80857C15.0214 8.80143 15.0186 8.79143 15.0129 8.78572C14.9617 8.73854 14.904 8.69908 14.8414 8.66857C14.8214 8.65714 14.8057 8.64 14.7857 8.63143C14.7378 8.61642 14.6885 8.60636 14.6386 8.60143C14.5967 8.58829 14.5536 8.5792 14.51 8.57429L13.5743 8.57143H13.5714C13.382 8.57105 13.2002 8.64594 13.0659 8.77963C12.9317 8.91331 12.8561 9.09485 12.8557 9.28429C12.8553 9.47373 12.9302 9.65556 13.0639 9.78978C13.1976 9.924 13.3791 9.99962 13.5686 10H13.7857V17.8C13.7857 17.81 13.7914 17.8186 13.7914 17.8286V19.2543C10.7501 16.6762 8.72175 13.1029 8.06714 9.17C8.03226 8.98496 7.92709 8.82061 7.77368 8.71141C7.62027 8.60222 7.43055 8.55666 7.24429 8.58429C7.05751 8.61576 6.89088 8.72012 6.78104 8.87443C6.6712 9.02874 6.62715 9.22036 6.65857 9.40714C7.46275 14.1974 10.1343 18.4729 14.0871 21.2957C14.1014 21.3057 14.1186 21.3014 14.1314 21.31C14.2419 21.3857 14.3719 21.4279 14.5057 21.4314C14.6108 21.4301 14.7143 21.4052 14.8086 21.3586L14.8314 21.3529C14.8457 21.3457 14.8543 21.3271 14.8686 21.3186C14.9766 21.2547 15.0654 21.1629 15.1257 21.0529C15.1851 20.9508 15.2176 20.8352 15.22 20.7171V16.8029C16.5827 16.9733 17.8406 17.6218 18.77 18.6329L21.1229 21.2C21.2509 21.3394 21.4291 21.4223 21.6183 21.4303C21.7119 21.4343 21.8054 21.4198 21.8935 21.3876C21.9815 21.3555 22.0624 21.3063 22.1314 21.2429C22.2005 21.1794 22.2563 21.1031 22.2959 21.0181C22.3354 20.9331 22.3578 20.8411 22.3617 20.7474C22.3657 20.6538 22.3512 20.5603 22.319 20.4722C22.2869 20.3842 22.2377 20.3033 22.1743 20.2343L19.8214 17.6671ZM19.39 0H10.6243C2.18571 0 0 2.18143 0 10.61V19.3757C0 27.8157 2.18143 30 10.61 30H19.3757C27.8157 30 30 27.8186 30 19.39V10.6243C30 2.18429 27.8186 0 19.39 0ZM28.5714 19.39C28.5714 27.0271 27.0243 28.5714 19.3743 28.5714H10.6114C2.97143 28.5714 1.42857 27.0243 1.42857 19.3743V10.6114C1.42857 2.97143 2.97571 1.42857 10.6257 1.42857H19.39C27.0271 1.42857 28.5714 2.97571 28.5714 10.6257V19.39Z" fill="black"/>
</svg>
